General                          : ChattChitto RG - Movies

Complete name                    : Love Happens 2009 BDRip.mp4
Format                           : MPEG-4
Format profile                   : Base Media
Codec ID                         : isom
File size                        : 2.02 GiB
Duration                         : 1h 49mn
Overall bit rate                 : 2 654 Kbps
Encoded date                     : UTC 2010-05-10 19:32:58

Video
==========
ID                               : 1
Format                           : AVC
Format/Info                      : Advanced Video Codec
Format profile                   : High@L3.1
Format settings, CABAC           : Yes
Format settings, ReFrames        : 3 frames
Codec ID                         : avc1
Codec ID/Info                    : Advanced Video Coding
Duration                         : 1h 49mn
Bit rate mode                    : Variable
Bit rate                         : 2 300 Kbps
Maximum bit rate                 : 21.4 Mbps
Width                            : 1 280 pixels
Height                           : 688 pixels
Display aspect ratio             : 1.860
Frame rate mode                  : Constant
Frame rate                       : 23.976 fps
Resolution                       : 8 bits
Colorimetry                      : 4:2:0
Scan type                        : Progressive
Bits/(Pixel*Frame)               : 0.109
Stream size                      : 1.75 GiB (87%)
Writing library                  : x264 core 76 r1271 496d79d
Encoded date                     : UTC 2010-05-10 19:27:01

Audio
==========
ID                               : 2
Format                           : AAC
Format/Info                      : Advanced Audio Codec
Format version                   : Version 4
Format profile                   : LC
Format settings, SBR             : No
Codec ID                         : 40
Duration                         : 1h 49mn
Bit rate mode                    : Variable
Bit rate                         : 352.8 Kbps
Maximum bit rate                 : 468 Kbps
Channel(s)                       : 6 channels
Channel positions                : Front: L C R, Side: L R, LFE
Sampling rate                    : 48.0 KHz
Stream size                      : 274 MiB (13%)
Encoded date                     : UTC 2010-05-10 19:33:55

Subtitles                        : English [SDH] | French | Spanish


----------------------------------------------------
IMDB Link: http://www.imdb.com/title/tt0899106/
----------------------------------------------------



Screen Shots:
==============    
http://bayimg.com/daMkgaAci 
http://bayimg.com/DAmkfaacI 
http://bayimg.com/DAmkIAacI 
http://bayimg.com/daMkEAaCI 
http://bayimg.com/dAmKDAacI



Plot:
======
When self-help author Dr. Burke Ryan (Eckhart) arrives in Seattle to teach a sold-out seminar, he unexpectedly meets florist Eloise Chandler (Aniston), the one person who might be able to help him help himself. But will two people who may have met the right person at exactly the wrong time be able to give love a chance? If they can, they’ll find that sometimes, when you least expect it…love happens. 




Release Info:
==============
original name .... : Love Happens 2009 BDRip.mp4
ripper.............: Recalled2Life (R2L)
encoder............: Recalled2Life (R2L)
video codec........: H264/.MP4                   
video bitrate......: 2300 Kbps
audio codec........: AAC-LC
aspect ratio.......: 1:85.1                              
resolution.........: 1280 x 688                             
genre..............: Drama | Romance          
runtime............: 1h 49mn
language...........: English
rating.............: PG-13                             
subtitles..........: English [SDH] | French | Spanish
sample.............: Yes [11.8 MB]
2ch Audio..........: 2ch Audio for XBox Viewers  
Compatibility .....: XBox 360 | PS3 | WD Live 



Source:
========
Love Happens Blu-Ray 1080p VC-1/DTS-HD [28.9 GB]


Notes:
=======
ChattChitto RG Encourages Burning this Film with ConvertXtoDVD.
XBox 360 | PS3 | WD Live - Compatible
Enhanced and Filtered for your viewing pleasure ;)